<?xml version="1.0" encoding="UTF-8" standalone="no"?>
<svg
   xmlns:dc="http://purl.org/dc/elements/1.1/"
   xmlns:cc="http://creativecommons.org/ns#"
   xmlns:rdf="http://www.w3.org/1999/02/22-rdf-syntax-ns#"
   xmlns:svg="http://www.w3.org/2000/svg"
   xmlns="http://www.w3.org/2000/svg"
   xmlns:sodipodi="http://sodipodi.sourceforge.net/DTD/sodipodi-0.dtd"
   xmlns:inkscape="http://www.inkscape.org/namespaces/inkscape"
   width="36"
   height="36"
   viewBox="0 0 36 36"
   fill="none"
   version="1.1"
   id="svg4"
   sodipodi:docname="pointer.svg"
   inkscape:version="1.0 (4035a4fb49, 2020-05-01)">
  <metadata
     id="metadata10">
    <rdf:RDF>
      <cc:Work
         rdf:about="">
        <dc:format>image/svg+xml</dc:format>
        <dc:type
           rdf:resource="http://purl.org/dc/dcmitype/StillImage" />
        <dc:title></dc:title>
      </cc:Work>
    </rdf:RDF>
  </metadata>
  <defs
     id="defs8" />
  <sodipodi:namedview
     inkscape:document-rotation="0"
     pagecolor="#ffffff"
     bordercolor="#666666"
     borderopacity="1"
     objecttolerance="10"
     gridtolerance="10"
     guidetolerance="10"
     inkscape:pageopacity="0"
     inkscape:pageshadow="2"
     inkscape:window-width="1366"
     inkscape:window-height="697"
     id="namedview6"
     showgrid="false"
     inkscape:zoom="4.6458334"
     inkscape:cx="-39.471132"
     inkscape:cy="30.031711"
     inkscape:window-x="-8"
     inkscape:window-y="-8"
     inkscape:window-maximized="1"
     inkscape:current-layer="svg4" />
  <path
     stroke="currentColor"
     stroke-linecap="round"
     stroke-width="2.87849"
     d="M 20.062151,14.986499 V 12.726374 A 2.0621506,2.2601256 0 0 0 18,10.466248 v 0 a 2.0621506,2.2601256 0 0 0 -2.06215,2.260126 v 3.766877 m 4.124301,0 v -2.260126 a 2.0621506,2.2601256 0 0 1 2.06215,-2.260126 v 0 a 2.0621506,2.2601256 0 0 1 2.06215,2.260126 v 0.753374 M 11.813549,17.246626 V 6.6993721 a 2.0621506,2.2601256 0 0 1 2.06215,-2.2601257 v 0 a 2.0621506,2.2601256 0 0 1 2.062151,2.2601257 v 9.7938789 m 0,1.50675 v -1.50675 m -4.124301,4.520252 V 17.246626 A 2.0621506,2.2601256 0 0 0 9.7513978,14.986499 v 0 a 2.0621506,2.2601256 0 0 0 -2.0621506,2.260127 v 3.0135 c 0,3.766876 2.0621506,11.300628 10.3107528,11.300628 3.436918,0 10.310753,-2.260125 10.310753,-11.300628 v -2.260125 a 2.749534,3.0135008 0 0 0 -2.749534,-3.013502 h -1.374768 m 0,0 v 3.013502"
     id="path2"
     style="fill:#ffffff;fill-opacity:1;stroke:#000000;stroke-opacity:1" />
</svg>
