<?xml version="1.0" encoding="UTF-8" standalone="no"?>
<svg
   xmlns:dc="http://purl.org/dc/elements/1.1/"
   xmlns:cc="http://creativecommons.org/ns#"
   xmlns:rdf="http://www.w3.org/1999/02/22-rdf-syntax-ns#"
   xmlns:svg="http://www.w3.org/2000/svg"
   xmlns="http://www.w3.org/2000/svg"
   xmlns:sodipodi="http://sodipodi.sourceforge.net/DTD/sodipodi-0.dtd"
   xmlns:inkscape="http://www.inkscape.org/namespaces/inkscape"
   inkscape:version="1.0 (4035a4fb49, 2020-05-01)"
   sodipodi:docname="warning-svgrepo-com.svg"
   xml:space="preserve"
   style="enable-background:new 0 0 310.285 310.285;"
   viewBox="0 0 310.285 310.285"
   y="0px"
   x="0px"
   id="Capa_1"
   version="1.1"><metadata
   id="metadata39"><rdf:RDF><cc:Work
       rdf:about=""><dc:format>image/svg+xml</dc:format><dc:type
         rdf:resource="http://purl.org/dc/dcmitype/StillImage" /></cc:Work></rdf:RDF></metadata><defs
   id="defs37" /><sodipodi:namedview
   inkscape:current-layer="Capa_1"
   inkscape:window-maximized="1"
   inkscape:window-y="-8"
   inkscape:window-x="-8"
   inkscape:cy="155.1425"
   inkscape:cx="155.1425"
   inkscape:zoom="1.4373882"
   showgrid="false"
   id="namedview35"
   inkscape:window-height="697"
   inkscape:window-width="1366"
   inkscape:pageshadow="2"
   inkscape:pageopacity="0"
   guidetolerance="10"
   gridtolerance="10"
   objecttolerance="10"
   borderopacity="1"
   bordercolor="#666666"
   pagecolor="#ffffff" />
<path
   style="fill:#ff8080"
   id="path2"
   d="M264.845,45.441C235.542,16.139,196.583,0,155.142,0C113.702,0,74.743,16.139,45.44,45.441  C16.138,74.743,0,113.703,0,155.144c0,41.439,16.138,80.399,45.44,109.701c29.303,29.303,68.262,45.44,109.702,45.44  c41.44,0,80.399-16.138,109.702-45.44c29.303-29.302,45.44-68.262,45.44-109.701C310.285,113.703,294.147,74.743,264.845,45.441z   M132.172,49.336c2.399-2.483,5.637-3.873,9.119-3.873h28.04c3.482,0,6.72,1.403,9.114,3.888c2.395,2.485,3.643,5.804,3.514,9.284  l-4.634,104.895c-0.263,7.102-6.26,12.933-13.368,12.933h-17.627c-7.112,0-13.099-5.839-13.345-12.945L128.64,58.594  C128.519,55.114,129.773,51.821,132.172,49.336z M155.478,268.78c-16.266,0-28.532-12.844-28.532-29.876  c0-17.223,12.122-30.211,28.196-30.211c16.602,0,28.196,12.423,28.196,30.211C183.339,256.495,171.882,268.78,155.478,268.78z" />
<g
   id="g4">
</g>
<g
   id="g6">
</g>
<g
   id="g8">
</g>
<g
   id="g10">
</g>
<g
   id="g12">
</g>
<g
   id="g14">
</g>
<g
   id="g16">
</g>
<g
   id="g18">
</g>
<g
   id="g20">
</g>
<g
   id="g22">
</g>
<g
   id="g24">
</g>
<g
   id="g26">
</g>
<g
   id="g28">
</g>
<g
   id="g30">
</g>
<g
   id="g32">
</g>
</svg>
